<?xml version="1.0" encoding="iso-8859-1"?>
<!-- Generator: Adobe Illustrator 24.3.0, SVG Export Plug-In . SVG Version: 6.00 Build 0)  -->
<svg version="1.1" id="Layer_1" xmlns="http://www.w3.org/2000/svg" xmlns:xlink="http://www.w3.org/1999/xlink" x="0px" y="0px"
	 viewBox="0 0 436.983 153.159" style="enable-background:new 0 0 436.983 153.159;" xml:space="preserve">
<g id="Banner">
	<path style="fill:#CFCFD1;" d="M66.951,20.925c0,0,1.437,0.298,2.74,0.884c4.548,2.045,9.165,45.826,11.473,64.403
		c-3.13,0.012-7.502-0.118-12.686-0.763c-9.927-1.234-15.238-31.919-17.174-35.56c-1.182-2.222,0.098-3.146,1.959-14.153
		c1.515-8.956,1.111-10.965,3.291-12.859C59.302,20.491,63.856,20.285,66.951,20.925z"/>
	<path style="fill:#CFCFD1;" d="M327.113,90.093c-0.515,2.361-0.988,4.793-1.412,7.296c-2.061,12.172-2.512,23.48-2.098,33.543
		c6.466-0.818,14.883-1.181,24.534,0.253c15.724,2.335,27.653,8.387,34.915,12.886c8.122,4.559,15.127,5.645,19.275,5.916
		c4.126,0.27,9.398,0.54,12.635-2.861c0.817-0.859,2.068-2.538,2.883-4.84c0.16-0.451,0.898-2.602,0.844-5.552l0,0
		c-0.248-1.212-0.066-2.213-0.054-2.302c0.081-0.609-1.777-3.839-10.121-15.162c-16.245-12.472-20.303-58.497-38.171-64.938
		C354.052,48.46,337.55,84.613,327.113,90.093z"/>
	<path style="fill:#FFFFFF;" d="M16.759,109.11c-0.814-2.318-2.767-8.006-2.784-14.218c-0.026-10.095,4.849-47.607,7.597-51.628l0,0
		c1.566-4.092,7.017-9.723,20.681-16.434c0,0,14.11-6.93,24.281-5.951c1.645,0.158,3.318,0.605,4.204,1.956
		c1.388,2.117,0.04,5.227-0.146,5.636c-1.056,2.319-2.693,3.112-6.651,5.631c-8.629,5.491-9.703,7.356-9.963,8.962
		c-0.317,1.951,0.555,3.601,0.833,4.127c4.46,8.441,24.312,4.879,29.074,4.271c2.58-0.329,1.246-0.284,10.211-2.201
		c0,0,7.113-1.521,13.498-3.017c19.188-4.495,61.719-16.763,97.457-25.023c33.056-7.64,56.873-10.073,84.365-12.881
		c15.982-1.633,31.711-2.772,51.525-0.972c14.077,1.279,31.284,4.139,49.974,12.671c9.092,4.151,29.182,13.581,29.849,26.583
		c0.047,0.919-0.017,33.479-0.59,38.496c-1.306,11.438-2.315,12.429-2.924,19.635c-0.587,6.944-0.227,12.533,0.091,17.47
		c0.314,4.878,0.822,9.029,1.293,12.211c-2.513-2.902-6.272-6.887-11.305-11.014c-9.024-7.399-20.394-13.815-40.618-19.332
		c-27.224-7.425-52.955-8.436-70.578-8.007c-14.814,0.807-37.474,2.848-64.636,8.736c-25.22,5.467-48.309,12.949-60.187,16.826
		c0,0-47.689,15.559-77.943,13.893c-3.664-0.202-5.566-0.637-10.679-6.378c-1.512-1.697-1.554-2.482-4.816-10.138
		c-1.717-4.03-5.329-12.44-9.254-19.765c-1.466-2.737-3.727-6.71-6.882-11.348c-3.583,0.188-8.343,0.782-13.701,2.488
		c-4.934,1.571-23.292,7.416-26.192,21.101c-0.697,3.29-0.329,6.221,0.119,8.238C20.391,117.299,18.382,113.729,16.759,109.11z"/>
</g>
</svg>
