<?xml version="1.0" encoding="iso-8859-1"?>
<!-- Generator: Adobe Illustrator 24.3.0, SVG Export Plug-In . SVG Version: 6.00 Build 0)  -->
<svg version="1.1" id="Banner" xmlns="http://www.w3.org/2000/svg" xmlns:xlink="http://www.w3.org/1999/xlink" x="0px" y="0px"
	 viewBox="0 0 436.983 114.154" style="enable-background:new 0 0 436.983 114.154;" xml:space="preserve">
<path style="fill:#CFCFD1;" d="M55.531,15.205c0,0,1.489,0.309,2.837,0.905c4.703,2.08,9.158,15.821,11.41,34.386
	c-3.247-0.014-7.782-0.181-13.156-0.868c-10.29-1.315-15.565-1.989-17.546-5.641c-1.209-2.228,0.125-3.14,2.141-14.112
	c1.64-8.928,1.237-10.937,3.513-12.809C47.599,14.707,52.325,14.539,55.531,15.205z"/>
<path style="fill:#CFCFD1;" d="M339.478,53.555c-0.552,2.352-1.062,4.777-1.521,7.272c-2.232,12.134-2.787,23.419-2.434,33.468
	c6.715-0.762,15.451-1.054,25.453,0.458c16.296,2.463,28.627,8.605,36.127,13.157c8.392,4.619,15.651,5.762,19.953,6.068
	c4.279,0.304,9.746,0.618,13.131-2.75c0.854-0.85,2.166-2.516,3.028-4.808c0.169-0.449,0.952-2.59,0.919-5.535c0,0,0,0,0,0
	c-0.248-1.212-0.051-2.21-0.038-2.299c0.089-0.607-1.814-3.847-10.384-15.221c-16.759-12.587-20.617-28.564-39.106-35.144
	C367.747,42.222,350.348,48.171,339.478,53.555z"/>
<path style="fill:#FFFFFF;" d="M2.779,72.815C1.953,70.493-0.03,64.799,0,58.597c0.05-10.078,5.396-17.482,8.278-21.472c0,0,0,0,0,0
	c1.657-4.071,7.355-9.648,21.584-16.233c0,0,14.692-6.8,25.238-5.737c1.706,0.172,3.438,0.631,4.346,1.987
	c1.423,2.125,0.002,5.218-0.195,5.625c-1.113,2.306-2.818,3.084-6.944,5.565c-8.995,5.409-10.123,7.262-10.406,8.863
	c-0.343,1.945,0.548,3.599,0.833,4.127c4.563,8.464,25.371,6.079,30.317,5.512c2.679-0.307,7.337-1.226,16.653-3.065
	c0,0,7.391-1.459,14.028-2.899c19.942-4.326,72.489-19.145,109.632-27.09c34.355-7.349,59.085-9.578,87.63-12.151
	c16.594-1.496,32.923-2.501,53.467-0.538c14.596,1.395,32.427,4.394,51.753,13.068c9.402,4.22,30.173,13.803,30.766,26.788
	c0.042,0.917-0.275,3.419-0.907,8.422c-1.443,11.407-2.497,12.388-3.184,19.577c-0.662,6.927-0.332,12.509-0.04,17.441
	c0.288,4.873,0.784,9.021,1.248,12.201c-2.586-2.918-6.455-6.928-11.645-11.09c-9.306-7.462-21.053-13.963-41.994-19.639
	c-28.189-7.641-54.878-8.866-73.166-8.585c-15.376,0.681-38.902,2.528-67.13,8.179c-26.208,5.246-50.222,12.521-62.576,16.293
	c0,0-57.923,18.06-89.3,16.143c-3.8-0.232-11.996-0.733-17.257-6.507c-1.555-1.707-1.593-2.491-4.919-10.161
	c-1.751-4.038-5.434-12.463-9.449-19.809c-1.5-2.744-3.815-6.73-7.053-11.387c-3.719,0.158-8.662,0.711-14.234,2.369
	c-5.131,1.527-24.224,7.208-27.337,20.845c-0.749,3.279-0.389,6.207,0.06,8.225C6.485,81.02,4.427,77.439,2.779,72.815z"/>
</svg>
