<?xml version="1.0" encoding="iso-8859-1"?>
<!-- Generator: Adobe Illustrator 24.3.0, SVG Export Plug-In . SVG Version: 6.00 Build 0)  -->
<svg version="1.1" id="Layer_3" xmlns="http://www.w3.org/2000/svg" xmlns:xlink="http://www.w3.org/1999/xlink" x="0px" y="0px"
	 viewBox="0 0 1026.286 793.701" style="enable-background:new 0 0 1026.286 793.701;" xml:space="preserve">
<rect x="-0.837" y="-14.423" style="fill:#9FD8DF;" width="1026.286" height="833.348"/>
<g id="Cloud_1">
	<path style="fill:#E5E5E5;" d="M143.96,680.419c5.406-1.349,20.607-0.675,20.607-0.675c5.403,9.119,24.997,2.027,24.997,2.027
		c11.485,6.08,15.136-1.928,15.136-1.928c-3.081-8.469-12.316-3.851-12.316-3.851c-6.158-10.006-15.394-2.309-15.394-2.309
		c-4.618-9.237-13.856-0.77-13.856-0.77c6.158-13.083-11.546-24.631-11.546-24.631c-16.164-6.928-26.171,9.236-26.171,9.236
		c-5.39-10.006-10.007-3.078-10.007-3.078c-7.698-11.546-16.165-3.849-16.165-3.849c-3.848-21.553-25.401-16.935-25.401-16.935
		c-11.546-28.48-37.64-33.292-58.245-22.147C-4.14,622.189-3.901,652.129-3.901,652.129c-3.473-5.152-10.903-2.448-10.903-2.448
		c-7.77,3.716-5.261,13.994-5.261,13.994c-1.54-6.925-10.744-13.114-20.75-9.266c-10.007,3.849-7.731,22.354-7.731,22.354
		c-5.389-8.47-12.316,1.539-12.316,1.539c-1.235,8.198,31.304,1.591,35.923,3.131c4.619,1.539,5.61-3.417,9.458-0.339
		c0,0,17.904,2.703,23.31-1.35c5.403-4.055,7.092-0.338,13.51,0.675c6.419,1.014,71.614-5.742,70.601-1.689
		c-1.014,4.053,12.835,4.392,13.85,1.014c0.758-2.528,3.039,6.756,12.16,1.013C117.95,680.756,134.43,682.8,143.96,680.419z"/>
</g>
<g id="Cloud_2">
	<path style="fill:#E5E5E5;" d="M686.787,225.199c0,0,3.336-5.719,7.146-1.906c0,0-0.475-14.773,13.344-14.296
		c0,0,7.15-31.932,49.564-31.932c10.486,0,30.501,8.581,32.407,16.682c0,0,13.344-7.148,20.969-0.952
		c7.625,6.192,3.336,16.68,3.336,16.68s12.869-5.719,16.684,3.336c0,0,9.055,0.475,11.436,8.1c0,0,10.007-3.813,12.39,4.767
		c0,0-6.196,3.336-11.915,0c0,0-12.392,5.719-17.157-0.954c0,0-23.351,11.913-32.882,0c0,0-12.869,4.29-15.728,0l-36.695,0.477
		c0,0-13.344,3.335-15.728-1.429c0,0-7.625,1.906-10.009,0C713.951,223.769,686.31,234.73,686.787,225.199z"/>
</g>
<g id="Cloud_3">
	<path style="fill:#E5E5E5;" d="M227.044,400.603c0,0-1.962-13.714,10.776-13.714c12.737,0,12.737,8.814,12.737,8.814
		s-5.876-34.28,26.451-41.141s45.065,27.428,45.065,27.428s26.447-13.714,58.779,19.594c0,0,19.59-4.904,28.408,7.833
		c0,0-5.88,6.861-18.614,6.861c-12.733,0-18.618,8.814-26.451,2.938c-7.838-5.876-33.308-5.876-33.308-5.876
		s-14.699,9.795-20.575,5.876h-39.184c0,0-12.737,8.814-17.633,0c0,0-13.718,5.876-16.656,0c0,0-46.046,4.9-48.003-3.919
		c0,0,1.957-12.733,8.819-8.818c0,0,3.919-11.752,11.752-10.776C217.244,396.684,227.044,400.603,227.044,400.603z"/>
</g>
</svg>
