<?xml version="1.0" encoding="iso-8859-1"?>
<!-- Generator: Adobe Illustrator 24.3.0, SVG Export Plug-In . SVG Version: 6.00 Build 0)  -->
<svg version="1.1" id="Silhouette_copy" xmlns="http://www.w3.org/2000/svg" xmlns:xlink="http://www.w3.org/1999/xlink" x="0px"
	 y="0px" viewBox="0 0 1920 1152.671" style="enable-background:new 0 0 1920 1152.671;" xml:space="preserve">
<g>
	<path style="fill:none;" d="M562.39,611.2c-5.99-0.23-9.03-2.74-8.53-9.26c0.22-2.82-1.13-5.76-1.86-8.62
		c-0.45-1.72-2.09-6.25-2.64-6.28c-1.57-0.12-4.58,1.42-6.31,4.21c-1.95,3.17-4.07,6.21-6.2,9.27c-0.84,1.22-1.68,2.44-2.52,3.66
		c-2.59,1.08-5.23,1.26-7.92,0.4c-0.53-0.17-1.07-0.35-1.61-0.52c-2.91-0.93-5.79-1.74-8.28,0.04c-0.74,0.52-1.44,1.27-2.1,2.32
		c-1.85,1.37,0.26,2.43,0.29,3.65c0.46,0.34,0.92,0.67,1.38,1.01c0.59,0.44,1.17,0.87,1.76,1.29c0.2,0.15,0.39,0.3,0.59,0.44
		c6.03,2.77,10.71,6.21,14.72,12.33c6.7,10.2,8.09,23.66,18.99,31.19c0.51-0.65,0.99-1.31,1.47-1.99
		c4.31-6.1,7.88-13.17,14.49-16.49c8.47-4.25,6.07-10.67,5.64-16.83C573.28,614.32,568.76,611.46,562.39,611.2z"/>
	<g>
		<path style="fill:#18004C;" d="M919.49,928.02c-1.03-5.1-2.47-10.11-3.75-15.15c-0.02-0.05-0.02-0.09-0.04-0.14
			c-4.48-6.82-5.6-16.51-17.48-16.73c-2.64-0.05-9.4-5.56-7.83-12.41c2.96,1.58,5.88,3.48,9.65,1.61c-1.42-3.92-4.27-4.32-7.23-4.52
			c-2.97-2.53-6.49-4.64-8.79-7.68c-4.02-5.33-8.94-7.4-15.36-6.47c-0.23,0.09-0.52,0.12-0.74,0.22c-0.06,0.03-0.12,0.07-0.17,0.11
			c-15.29,13.23-24.94,0.62-35.53-7.72c-19.59-14.37-40.81-24.76-65.18-28.49c-1.84-0.29-15.63,2.09-7.48-9.55
			c1.59-2.28-3.92-0.99-4.58-3.44c-0.01,0-0.01,0-0.01,0c-13.03-1.1-23.17-9.29-34.66-14.16c-12.69-4.66-24.86-10.24-34.94-19.57
			c-0.35,0.02-0.68,0.02-1,0c0.2-0.1,0.4-0.21,0.6-0.35c-3.05-2.71-5.28-6.56-9.39-7.88h-0.01c-0.61-0.2-1.26-0.34-1.95-0.41
			l0.27-0.04l0.04-0.01c-0.13-0.39-0.27-0.77-0.42-1.13c-2.15-5.3-6.43-8.27-11.71-10.16c0.22,0.56,0.46,1.11,0.71,1.63
			c-0.37-0.55-0.71-1.13-1.03-1.74l-0.47-0.39l-0.6,0.01c-1.05-0.8-2.13-1.53-3.23-2.18c-5.88-3.51-12.45-5.15-19.28-6.06
			c-4.4-2.39-9.08-3.41-13.97-3.41c-0.7,0-1.41,0.02-2.12,0.06l-0.1-0.04c-10.83-6.99-11.68-16.78-8.83-28.31
			c1.3-5.29,3.75-10.19,5.79-15.21c1.6,5.6,3.87,10.89,7.4,16.25c2.38,3.61,4.74,6.35,6.45,8.18c-0.77-5.44-1.22-11.82-0.86-18.94
			c0.17-3.13,0.47-6.08,0.86-8.82c0.27,1.15,0.91,3.26,2.59,5.38c1.62,2.04,3.47,3.13,4.52,3.66c-0.94-3.89-1.77-8.52-2.16-13.78
			c-0.42-5.73-0.22-10.82,0.22-15.06c0.46,2.47,1.47,6.18,3.87,10.12c1.79,2.92,3.78,5.05,5.37,6.5c-0.77-3.36-1.79-8.63-2.29-15.13
			c-0.23-2.95-0.31-5.75-0.29-8.39c0.06-11.07,1.89-19.21,2.58-22.78c4.17-21.5,1.18-53.46-12.82-77.73
			c-0.01-0.01-0.02-0.03-0.02-0.04c-0.65-1.12-1.37-2.31-2.19-3.58c-0.01-0.03-0.04-0.07-0.06-0.1
			c-5.649-10.959-13.906-18.798-23.668-24.929c-0.001,0-0.001-0.001-0.002-0.001v0c-2.905-1.824-5.936-3.503-9.08-5.06
			c-20.52-10.17-34.49-3.18-39.36,18.47c-1.36,6.04,0.65,14.56-8.67,16.92c-1.24-7.18-0.47-11.34,3.55-18.09
			c0-0.001,0.001-0.001,0.001-0.002c0.187,0.418,0.368,0.854,0.536,1.323c0.382,1.07,0.624,2.064,0.78,2.932
			c1.267-4.287,1.475-7.705,1.409-10.102c0-0.008-0.001-0.017-0.001-0.024c0.002-0.006,0.003-0.011,0.005-0.016
			c0.61-2.22,0.95-4.71,1.01-7.22c0-0.004,0-0.008,0-0.012c0.712-1.687,1.135-2.545,1.982-2.837c1.499-0.517,3.102,0.857,3.32,1.048
			c-0.731-1.59-1.873-3.8-3.579-6.231c-1.796-2.559-3.466-4.292-4.896-5.734c-0.007-0.007-0.013-0.013-0.02-0.02
			c-0.01-0.013-0.021-0.027-0.027-0.034c-0.12-0.17-0.25-0.34-0.39-0.49c-2.857-3.233-5.817-6.014-8.865-8.399
			c-0.516-0.427-1.026-0.828-1.546-1.215c-0.032-0.024-0.065-0.045-0.097-0.069c-0.16-0.119-0.324-0.241-0.482-0.358
			c-0.244-0.171-0.491-0.338-0.738-0.506c-0.138-0.094-0.275-0.191-0.413-0.283c-0.019-0.013-0.039-0.027-0.059-0.04
			c-0.111-0.074-0.222-0.139-0.333-0.211c-0.447-0.292-0.893-0.576-1.338-0.845c-4.753-2.925-9.717-4.876-14.902-5.862
			c-0.078-0.016-0.148-0.031-0.221-0.046c-0.035-0.007-0.07-0.015-0.105-0.022c-0.13-0.026-0.252-0.05-0.366-0.072
			c-0.027-0.005-0.049-0.009-0.074-0.014c-0.069-0.013-0.14-0.027-0.2-0.038c-0.075-0.009-0.14-0.027-0.205-0.037
			c-0.005-0.001-0.013-0.003-0.018-0.003c-3.499-0.632-16.613-2.995-25.791,3.082c-0.009,0.003-0.017,0.005-0.026,0.009
			c-0.47,0.16-0.94,0.34-1.41,0.53c0.04,0.13,0.07,0.25,0.11,0.38c-0.15-0.09-0.29-0.18-0.42-0.27c-0.15,0.36-0.32,0.72-0.49,1.07
			c0,0,0,0,0,0c-2.4,2.16-4.497,5.177-5.086,6.024c-0.989,1.422-3.725,5.546-5.701,11.661c-1.224,3.789-1.622,6.69-2.073,10.106
			c-0.363,2.749-0.69,6.289-0.748,10.456c-0.001,0.001-0.001,0.002-0.002,0.003c-0.09,0.14-0.18,0.27-0.28,0.4v0.01
			c0.09,0.08,0.18,0.16,0.27,0.25l0.001,0.001c-0.001,0.215-0.001,0.434-0.001,0.653c-0.003,0.021-0.008,0.034-0.01,0.056
			c-0.1,0.84-0.04,2.45,0.1,4.18c0.005,0.036,0.008,0.066,0.01,0.099c0.002,0.039,0.002,0.075,0.004,0.114
			c0.002-0.002,0.004-0.004,0.006-0.006c0.26,3.098,0.76,6.483,1.049,6.513h0.01c0.07,0.18,0.15,0.36,0.22,0.54
			c0.04,0.1,0.09,0.21,0.13,0.31c0.57,1.37,1.13,2.72,1.7,4.08c0.11,0.27,0.22,0.54,0.33,0.8c-0.12,6.71-2,11.16-3.71,13.99
			c-4.86,8.03-11.9,8.32-17.1,16.52c-2.17,3.42-3.21,6.91-4.13,13.39c-2.13,15.06-0.6,24.95,1.68,55.54
			c0.71,9.58,1.54,21.77,7.04,36.8c0.12,0.35,0.23,0.64,0.3,0.83c3.84,7.12,7.67,14.24,11.5,21.36c0.04-0.02,0.07-0.05,0.11-0.07
			c0.07,0.05,0.15,0.08,0.22,0.13c-0.02,0.14-0.04,0.29-0.06,0.43c3.6,6,6.64,12.26,8.48,19.05c0.79,0.49,1.48,1,2.07,1.54
			c-0.1,0.41-0.19,0.82-0.27,1.22v0.01c2.11,4.78-0.32,9.94-0.39,14.9v0.03c0.09,0.92,0.18,1.83,0.28,2.76v0.02
			c3.62,9.15,0.69,18.61,1.37,27.9c0.55,24.24-4.33,47.15-16.14,68.35c-0.6,1.15-1.58,3.03-2.17,4.18
			c-1.54,3.25-3.08,6.49-4.62,9.73c0,0.02-0.01,0.03-0.01,0.05c-0.43,1.14-0.92,2.25-1.55,3.25c-1.36,2.89-2.73,5.78-4.1,8.66
			c-0.87,1.83-1.73,3.65-2.59,5.47c-4.37,13.97-9.15,27.73-18.03,39.65h-0.01c-0.19,0.44-0.37,0.88-0.56,1.32
			c-5.74,13.38-7.48,26.76-13.23,40.14c-3.31,12.93-6.65,25.87-9.92,38.82c-1.06,4.22-3.04,7.88-6.09,10.99
			c1.14,5.04,1.37,9.94,0.29,15.17c-1.01,4.92-2.26,10.05-0.83,15.14c0.15,0.53,0.32,1.04,0.53,1.56
			c-0.27,4.09,1.11,8.47-1.59,12.17c-2.98,4.07-2.82,8.1-0.98,12.21c0.21,0.44,0.42,0.88,0.65,1.32c8.37,1.33,17.97,1.78,24.57,5.48
			c11.46,6.41,17.9,4.38,29.08,2.56c0.01,0,0.04-0.01,0.05-0.01c5.79-0.95,11.7-1.47,17.3-3.09c2.56-0.75,7.7,0.81,7.36-4.36
			c-0.29-4.41-2.17-8.2-7.46-9.02c-9.83-1.52-16.29-7.58-20.89-16c2.71-3.9-5.34-5.27-2.19-9.28c1.43-5.9-3.17-11.98,0.52-17.82
			c6.26-19.23,14.45-37.64,23.51-55.69v-0.01c9.9-22.52,20.83-44.51,33.66-65.51c7.38-15.04,16.09-29.26,26.24-44.05
			c7.97,15.76,16.32,30.05,21.81,45.75c1.76,5.06,2.73,10.07,0.17,15.01c-0.02,0.05-0.04,0.1-0.06,0.15
			c-0.14,0.31-0.32,0.62-0.55,0.94c-2.63,8.65-5.26,17.31-7.89,25.97c-0.56,10.67-1.53,21.29-4.07,31.71
			c-2.89,17.53-1.59,35.58-7.15,52.87c-2.02,6.3,3.01,13.25,0.92,20.13c-0.55,7.78,6.77,14.08,4.22,22.24c0,0.01,0,0.03-0.01,0.05
			c-0.74,5.94,1.56,10.96,6.89,12.91c9.67,3.56,12.339-2.06,22.199-1.24c5.17,0.43,4.41-4.38,5.52-7.59
			c0.71-2.06,3.17-2.03,5.15-2.05c4.28-0.04,8.55-0.01,12.83-0.01c0.09,0,0.17-0.01,0.26-0.01c0.03,0.06,0.05,0.11,0.06,0.17h0.01
			c10.12,5.02,20.49,1.24,30.4-0.29c12.31-1.91,15.44-10.21,9.68-21.52c-0.22,0.03-0.45,0.05-0.67,0.07
			c-8.42-0.77-16.87-1.4-25.28-2.36c-11.6-1.33-20.18-11.49-20.4-23.81c-4.22-3.19-5.39-6.55-2.45-11.7
			c2.77-4.85,3.12-10.23,1.26-16.07c-2.19-6.83,1.75-13.39,3.11-20.03c2.87-13.99,5.11-28.15,10.12-41.62
			c1.38-3.87,11.141-6.29,14.941-7.63c13.58-0.59,19.68-16.77,33.82-16.19c0.63-1.35,1.26-2.69,1.89-4.04
			c0.28-0.32,0.56-0.64,0.86-0.98c3.3-3.8,6.77-8.08,11.46-8.08c1.37,0,2.84,0.36,4.43,1.2c3.68,1.93,7.66,4.72,11.01,7.55
			c4.94,4.19,10.53,7.71,14.2,13.46c12.94,20.2,27.37,39.56,38.9,60.52c7.39,13.44,10.68,29.14,15.81,43.83
			c2.39,22.28,1.65,22.64,1.85,23.63c1.96,3.56,0.27,2.04,1.14,4.53c0.59,1.7,0,0,2.8,12.03c1.08,1.14,6.46-0.38,7.24-0.96
			c4.09-2.7,7.56-11.49,8-16.51c0.24-2.74-1.79-25.17,8.23-28.45c3.02,2.23,4.17,5.22,5.06,8.28c0.3,1.02,0.56,2.04,0.86,3.05
			c1.87,0.26,1.4,4.21,4.87,2.56c-2.93-6.13-2.06-12.73-2.01-19.22c0.07-8.67-2.72-16.86-11.23-18.86
			c-15.52-3.64-18.85-15.61-22.64-27.97c-1.74-5.66-3.83-11.21-5.72-16.83c-8.4-24.9-21.83-46.39-42.64-62.88
			c-3.02-4.79-9.54-9.12-1.98-15.27c1.88-0.35,4.14,0.42,5.38-1.82c6.75-2.8,6.4-9.18,7.34-14.92c0.8-1.1,1.79-2.47,2.6-3.57
			c2.9-1.47,5.42-2.74,7.62-3.83h0.01l0.01-0.01c4.43-2.19,7.61-3.68,10.21-4.66c0-0.01,0-0.01,0.01-0.01h0.01
			c5.02-1.89,7.84-1.91,13.24-1.64c5.28,0.26,10.33,1.06,14.98,3.43h0.1c1.38,0.69,2.71,1.53,3.99,2.53
			c15.29,4.99,30.31,11.15,45.94,14.64c16.41,3.66,25.77,17.78,40.59,23.83c16.66,6.79,28.73,21.7,45.53,28.86
			c2.32,0.99,4.24,3.64,7.14,1.95C919.84,934.14,920.09,930.97,919.49,928.02z M568.11,637.85c-6.61,3.32-10.18,10.39-14.49,16.49
			c-0.48,0.68-0.96,1.34-1.47,1.99c-10.9-7.53-12.29-20.99-18.99-31.19c-4.01-6.12-8.69-9.56-14.72-12.33
			c-0.2-0.14-0.39-0.29-0.59-0.44c-0.59-0.42-1.17-0.85-1.76-1.29c-0.46-0.34-0.92-0.67-1.38-1.01c-0.03-1.22-2.14-2.28-0.29-3.65
			c0.66-1.05,1.36-1.8,2.1-2.32c2.49-1.78,5.37-0.97,8.28-0.04c0.54,0.17,1.08,0.35,1.61,0.52c2.69,0.86,5.33,0.68,7.92-0.4
			c0.84-1.22,1.68-2.44,2.52-3.66c2.13-3.06,4.25-6.1,6.2-9.27c1.73-2.79,4.74-4.33,6.31-4.21c0.55,0.03,2.19,4.56,2.64,6.28
			c0.73,2.86,2.08,5.8,1.86,8.62c-0.5,6.52,2.54,9.03,8.53,9.26c6.37,0.26,10.89,3.12,11.36,9.82
			C574.18,627.18,576.58,633.6,568.11,637.85z"/>
	</g>
</g>
<g id="Layer_23">
</g>
<g>
	<path style="fill:#18004C;" d="M-3.657,1069.715c48.417,5.917,88.58,7.996,116.289,8.801c76.91,2.235,99.385-4.134,162.463,1.354
		c52.595,4.576,49.567,10.1,99.187,13.54c38.948,2.701,50.078-0.06,141.941-3.385c78.876-2.855,119.3-4.224,167.593-1.354
		c42.346,2.516,41.944,5.036,92.347,8.801c65.544,4.897,109.16,3.844,155.622,4.062c62.957,0.296,72.025,2.649,213.766,9.478
		c220.559,10.627,330.839,15.941,415.562,14.894c69.01-0.852,135.605-3.77,205.216,4.062c12.6,1.418,49.884,5.954,102.608,9.478
		c27.998,1.871,51.243,2.849,66.695,3.385c0,99.813,0,199.626,0,299.44c-661.297,0-1322.595,0-1983.893,0
		C-33.392,1318.086-18.524,1193.9-3.657,1069.715z"/>
</g>
</svg>
