<?xml version="1.0" encoding="iso-8859-1"?>
<!-- Generator: Adobe Illustrator 24.3.0, SVG Export Plug-In . SVG Version: 6.00 Build 0)  -->
<svg version="1.1" id="Silhouette_copy" xmlns="http://www.w3.org/2000/svg" xmlns:xlink="http://www.w3.org/1999/xlink" x="0px"
	 y="0px" viewBox="0 0 1920 540" style="enable-background:new 0 0 1920 540;" xml:space="preserve">
<g>
	<path style="fill:#0C1126;" d="M-18.96,474.123c48.417,5.918,88.58,7.996,116.289,8.801c76.91,2.235,99.385-4.134,162.463,1.354
		c52.595,4.576,49.567,10.1,99.187,13.54c38.948,2.701,50.078-0.06,141.941-3.385c78.876-2.855,119.3-4.224,167.593-1.354
		c42.346,2.516,41.944,5.036,92.347,8.801c65.544,4.897,109.16,3.844,155.622,4.062c62.957,0.296,72.025,2.649,213.766,9.478
		c220.559,10.627,330.839,15.94,415.562,14.894c69.01-0.852,135.605-3.77,205.216,4.062c12.6,1.418,49.884,5.954,102.608,9.478
		c27.998,1.872,51.243,2.849,66.695,3.385c0,99.813,0,199.626,0,299.44c-661.298,0-1322.595,0-1983.893,0
		C-48.695,722.494-33.828,598.308-18.96,474.123z"/>
</g>
<g>
	<g>
		<path style="fill:#0C1126;" d="M829.033,354.306c-0.858-4.249-2.058-8.423-3.124-12.623c-0.017-0.042-0.017-0.075-0.033-0.117
			c-3.733-5.682-4.666-13.756-14.564-13.939c-2.2-0.042-7.832-4.633-6.524-10.34c2.466,1.316,4.899,2.9,8.04,1.341
			c-1.183-3.266-3.558-3.599-6.024-3.766c-2.475-2.108-5.407-3.866-7.324-6.399c-3.349-4.441-7.449-6.166-12.798-5.391
			c-0.192,0.075-0.433,0.1-0.617,0.183c-0.05,0.025-0.1,0.058-0.142,0.092c-12.74,11.023-20.78,0.517-29.603-6.432
			c-16.322-11.973-34.002-20.63-54.307-23.738c-1.533-0.242-13.023,1.741-6.232-7.957c1.325-1.9-3.266-0.825-3.816-2.866
			c-0.008,0-0.008,0-0.008,0c-10.856-0.916-19.305-7.74-28.878-11.798c-10.573-3.883-20.713-8.532-29.112-16.305
			c-0.292,0.017-0.567,0.017-0.833,0c0.167-0.083,0.333-0.175,0.5-0.292c-2.541-2.258-4.399-5.466-7.824-6.565h-0.008
			c-0.508-0.167-1.05-0.283-1.625-0.342l0.225-0.033l0.033-0.008c-0.108-0.325-0.225-0.642-0.35-0.941
			c-1.791-4.416-5.357-6.89-9.757-8.465c0.183,0.467,0.383,0.925,0.592,1.358c-0.308-0.458-0.592-0.941-0.858-1.45l-0.392-0.325
			l-0.5,0.008c-0.875-0.667-1.775-1.275-2.691-1.816c-4.899-2.924-10.373-4.291-16.064-5.049c-3.666-1.991-7.565-2.841-11.64-2.841
			c-0.583,0-1.175,0.017-1.766,0.05l-0.083-0.033c-9.023-5.824-9.732-13.981-7.357-23.588c1.083-4.408,3.124-8.49,4.824-12.673
			c1.333,4.666,3.224,9.073,6.166,13.539c1.983,3.008,3.949,5.291,5.374,6.815c-0.641-4.533-1.016-9.848-0.716-15.781
			c0.142-2.608,0.392-5.066,0.716-7.349c0.225,0.958,0.758,2.716,2.158,4.483c1.35,1.7,2.891,2.608,3.766,3.049
			c-0.783-3.241-1.475-7.099-1.8-11.481c-0.35-4.774-0.183-9.015,0.183-12.548c0.383,2.058,1.225,5.149,3.224,8.432
			c1.491,2.433,3.149,4.208,4.474,5.416c-0.642-2.799-1.491-7.19-1.908-12.606c-0.192-2.458-0.258-4.791-0.242-6.99
			c0.05-9.223,1.575-16.006,2.15-18.98c3.474-17.914,0.983-44.542-10.681-64.764c-0.008-0.008-0.017-0.025-0.017-0.033
			c-0.542-0.933-1.141-1.925-1.825-2.983c-0.008-0.025-0.033-0.058-0.05-0.083c-4.707-9.131-11.586-15.662-19.72-20.77
			c0,0-0.001-0.001-0.002-0.001v0c-2.42-1.52-4.946-2.919-7.565-4.216c-17.097-8.474-28.737-2.65-32.794,15.389
			c-1.133,5.032,0.542,12.131-7.224,14.098c-1.033-5.982-0.392-9.448,2.958-15.072c0-0.001,0.001-0.001,0.001-0.002
			c0.156,0.348,0.307,0.712,0.446,1.103c0.318,0.892,0.52,1.72,0.65,2.443c1.056-3.572,1.229-6.419,1.174-8.417
			c0-0.006,0-0.014-0.001-0.02c0.001-0.005,0.003-0.009,0.004-0.014c0.508-1.85,0.792-3.924,0.841-6.016c0-0.003,0-0.007,0-0.01
			c0.593-1.406,0.945-2.12,1.651-2.364c1.249-0.431,2.585,0.714,2.766,0.873c-0.609-1.325-1.56-3.166-2.982-5.191
			c-1.496-2.132-2.887-3.576-4.079-4.778c-0.006-0.006-0.011-0.011-0.017-0.017c-0.008-0.011-0.017-0.023-0.023-0.028
			c-0.1-0.142-0.208-0.283-0.325-0.408c-2.38-2.694-4.847-5.011-7.386-6.998c-0.43-0.355-0.855-0.69-1.288-1.012
			c-0.027-0.02-0.054-0.037-0.081-0.057c-0.134-0.099-0.27-0.201-0.402-0.298c-0.203-0.142-0.409-0.281-0.615-0.422
			c-0.115-0.079-0.229-0.159-0.344-0.236c-0.016-0.011-0.033-0.023-0.049-0.034c-0.093-0.062-0.185-0.116-0.277-0.176
			c-0.372-0.243-0.744-0.48-1.115-0.704c-3.96-2.437-8.096-4.063-12.416-4.884c-0.065-0.014-0.124-0.026-0.184-0.038
			c-0.029-0.005-0.058-0.013-0.088-0.018c-0.108-0.022-0.21-0.042-0.305-0.06c-0.022-0.004-0.041-0.008-0.062-0.012
			c-0.057-0.011-0.117-0.022-0.167-0.032c-0.062-0.008-0.117-0.022-0.171-0.031c-0.004-0.001-0.011-0.002-0.015-0.003
			c-2.916-0.527-13.841-2.496-21.489,2.568c-0.007,0.003-0.014,0.005-0.021,0.007c-0.392,0.133-0.783,0.283-1.175,0.442
			c0.033,0.108,0.058,0.208,0.092,0.317c-0.125-0.075-0.242-0.15-0.35-0.225c-0.125,0.3-0.267,0.6-0.408,0.891c0,0,0,0,0,0
			c-2,1.8-3.747,4.314-4.238,5.019c-0.824,1.185-3.104,4.621-4.75,9.716c-1.02,3.157-1.351,5.574-1.727,8.42
			c-0.302,2.29-0.575,5.24-0.623,8.712c-0.001,0.001-0.001,0.002-0.002,0.003c-0.075,0.117-0.15,0.225-0.233,0.333v0.008
			c0.075,0.067,0.15,0.133,0.225,0.208l0.001,0.001c-0.001,0.179-0.001,0.361-0.001,0.544c-0.002,0.018-0.007,0.028-0.009,0.047
			c-0.083,0.7-0.033,2.041,0.083,3.483c0.004,0.03,0.007,0.055,0.009,0.082c0.002,0.032,0.002,0.063,0.003,0.095
			c0.002-0.002,0.003-0.004,0.005-0.005c0.217,2.582,0.633,5.402,0.874,5.427h0.008c0.058,0.15,0.125,0.3,0.183,0.45
			c0.033,0.083,0.075,0.175,0.108,0.258c0.475,1.141,0.941,2.266,1.416,3.399c0.092,0.225,0.183,0.45,0.275,0.667
			c-0.1,5.591-1.666,9.298-3.091,11.656c-4.049,6.691-9.915,6.932-14.247,13.764c-1.808,2.849-2.675,5.757-3.441,11.156
			c-1.775,12.548-0.5,20.788,1.4,46.275c0.592,7.982,1.283,18.139,5.866,30.661c0.1,0.292,0.192,0.533,0.25,0.692
			c3.199,5.932,6.391,11.865,9.582,17.797c0.033-0.017,0.058-0.042,0.092-0.058c0.058,0.042,0.125,0.067,0.183,0.108
			c-0.017,0.117-0.033,0.242-0.05,0.358c3,4.999,5.532,10.215,7.065,15.872c0.658,0.408,1.233,0.833,1.725,1.283
			c-0.083,0.342-0.158,0.683-0.225,1.017v0.008c1.758,3.983-0.267,8.282-0.325,12.415v0.025c0.075,0.767,0.15,1.525,0.233,2.3v0.017
			c3.016,7.624,0.575,15.506,1.142,23.246c0.458,20.196-3.608,39.285-13.448,56.948c-0.5,0.958-1.316,2.525-1.808,3.483
			c-1.283,2.708-2.566,5.407-3.849,8.107c0,0.017-0.008,0.025-0.008,0.042c-0.358,0.95-0.767,1.875-1.291,2.708
			c-1.133,2.408-2.275,4.816-3.416,7.215c-0.725,1.525-1.441,3.041-2.158,4.558c-3.641,11.64-7.624,23.104-15.022,33.036h-0.008
			c-0.158,0.367-0.308,0.733-0.467,1.1c-4.783,11.148-6.232,22.296-11.023,33.444c-2.758,10.773-5.541,21.555-8.265,32.344
			c-0.883,3.516-2.533,6.566-5.074,9.157c0.95,4.199,1.141,8.282,0.242,12.639c-0.842,4.099-1.883,8.373-0.691,12.614
			c0.125,0.442,0.267,0.867,0.442,1.3c-0.225,3.408,0.925,7.057-1.325,10.14c-2.483,3.391-2.35,6.749-0.816,10.173
			c0.175,0.367,0.35,0.733,0.542,1.1c6.974,1.108,14.972,1.483,20.471,4.566c9.548,5.341,14.914,3.649,24.229,2.133
			c0.008,0,0.033-0.008,0.042-0.008c4.824-0.792,9.748-1.225,14.414-2.575c2.133-0.625,6.416,0.675,6.132-3.633
			c-0.242-3.674-1.808-6.832-6.216-7.515c-8.19-1.266-13.573-6.316-17.405-13.331c2.258-3.25-4.449-4.391-1.825-7.732
			c1.191-4.916-2.641-9.982,0.433-14.847c5.216-16.022,12.04-31.361,19.588-46.4v-0.008c8.249-18.763,17.355-37.085,28.045-54.582
			c6.149-12.531,13.406-24.379,21.863-36.702c6.64,13.131,13.598,25.037,18.172,38.118c1.466,4.216,2.275,8.39,0.142,12.506
			c-0.017,0.042-0.033,0.083-0.05,0.125c-0.117,0.258-0.267,0.517-0.458,0.783c-2.191,7.207-4.383,14.422-6.574,21.638
			c-0.467,8.89-1.275,17.739-3.391,26.42c-2.408,14.606-1.325,29.645-5.957,44.051c-1.683,5.249,2.508,11.04,0.767,16.772
			c-0.458,6.482,5.641,11.731,3.516,18.53c0,0.008,0,0.025-0.008,0.042c-0.617,4.949,1.3,9.132,5.741,10.756
			c8.057,2.966,10.281-1.716,18.496-1.033c4.308,0.358,3.674-3.649,4.599-6.324c0.592-1.716,2.641-1.691,4.291-1.708
			c3.566-0.033,7.124-0.008,10.69-0.008c0.075,0,0.142-0.008,0.217-0.008c0.025,0.05,0.042,0.092,0.05,0.142h0.008
			c8.432,4.183,17.072,1.033,25.329-0.242c10.257-1.591,12.864-8.507,8.065-17.93c-0.183,0.025-0.375,0.042-0.558,0.058
			c-7.015-0.642-14.056-1.166-21.063-1.966c-9.665-1.108-16.814-9.573-16.997-19.838c-3.516-2.658-4.491-5.457-2.041-9.748
			c2.308-4.041,2.6-8.523,1.05-13.389c-1.825-5.691,1.458-11.156,2.591-16.689c2.391-11.656,4.258-23.454,8.432-34.677
			c1.15-3.224,9.282-5.241,12.448-6.357c11.315-0.492,16.397-13.973,28.178-13.489c0.525-1.125,1.05-2.241,1.575-3.366
			c0.233-0.267,0.467-0.533,0.717-0.817c2.75-3.166,5.641-6.732,9.548-6.732c1.141,0,2.366,0.3,3.691,1
			c3.066,1.608,6.382,3.933,9.173,6.291c4.116,3.491,8.773,6.424,11.831,11.215c10.781,16.83,22.804,32.961,32.411,50.425
			c6.157,11.198,8.898,24.279,13.173,36.519c1.991,18.563,1.375,18.863,1.541,19.688c1.633,2.966,0.225,1.7,0.95,3.774
			c0.492,1.416,0,0,2.333,10.023c0.9,0.95,5.382-0.316,6.032-0.8c3.408-2.25,6.299-9.573,6.666-13.756
			c0.2-2.283-1.491-20.971,6.857-23.704c2.516,1.858,3.474,4.349,4.216,6.899c0.25,0.85,0.467,1.7,0.717,2.541
			c1.558,0.217,1.167,3.508,4.058,2.133c-2.441-5.107-1.716-10.606-1.675-16.014c0.058-7.224-2.266-14.048-9.357-15.714
			c-12.931-3.033-15.706-13.006-18.863-23.304c-1.45-4.716-3.191-9.34-4.766-14.023c-6.999-20.746-18.188-38.652-35.527-52.391
			c-2.516-3.991-7.949-7.599-1.65-12.723c1.566-0.292,3.449,0.35,4.483-1.516c5.624-2.333,5.332-7.649,6.116-12.431
			c0.667-0.916,1.491-2.058,2.166-2.974c2.416-1.225,4.516-2.283,6.349-3.191h0.008l0.008-0.008
			c3.691-1.825,6.341-3.066,8.507-3.883c0-0.008,0-0.008,0.008-0.008h0.008c4.183-1.575,6.532-1.591,11.031-1.366
			c4.399,0.217,8.607,0.883,12.481,2.858h0.083c1.15,0.575,2.258,1.275,3.324,2.108c12.739,4.158,25.254,9.29,38.277,12.198
			c13.673,3.049,21.471,14.814,33.819,19.855c13.881,5.657,23.938,18.08,37.935,24.046c1.933,0.825,3.533,3.033,5.949,1.625
			C829.325,359.406,829.533,356.764,829.033,354.306z M536.268,112.54c-5.507,2.766-8.482,8.657-12.073,13.739
			c-0.4,0.567-0.8,1.116-1.225,1.658c-9.082-6.274-10.24-17.489-15.822-25.987c-3.341-5.099-7.24-7.965-12.264-10.273
			c-0.167-0.117-0.325-0.242-0.492-0.367c-0.492-0.35-0.975-0.708-1.466-1.075c-0.383-0.283-0.767-0.558-1.15-0.841
			c-0.025-1.017-1.783-1.9-0.242-3.041c0.55-0.875,1.133-1.5,1.75-1.933c2.075-1.483,4.474-0.808,6.899-0.033
			c0.45,0.142,0.9,0.292,1.341,0.433c2.241,0.717,4.441,0.567,6.599-0.333c0.7-1.017,1.4-2.033,2.1-3.049
			c1.775-2.55,3.541-5.082,5.166-7.724c1.441-2.325,3.949-3.608,5.257-3.508c0.458,0.025,1.825,3.799,2.2,5.232
			c0.608,2.383,1.733,4.832,1.55,7.182c-0.417,5.432,2.116,7.524,7.107,7.715c5.307,0.217,9.073,2.6,9.465,8.182
			C541.326,103.65,543.325,108.999,536.268,112.54z"/>
	</g>
</g>
<g id="Layer_23">
</g>
</svg>
