<?xml version="1.0" encoding="iso-8859-1"?>
<!-- Generator: Adobe Illustrator 24.3.0, SVG Export Plug-In . SVG Version: 6.00 Build 0)  -->
<svg version="1.1" id="Banner" xmlns="http://www.w3.org/2000/svg" xmlns:xlink="http://www.w3.org/1999/xlink" x="0px" y="0px"
	 viewBox="0 0 439.294 179.568" style="enable-background:new 0 0 439.294 179.568;" xml:space="preserve">
<path style="fill:#CFCFD1;" d="M55.892,1.086c0,0,1.496,0.536,2.85,1.328c4.725,2.762,9.162,40.953,11.406,59.273
	c-3.264-0.531-7.822-1.416-13.224-2.937C46.582,55.837,41.307,30.156,39.32,26.308c-1.213-2.348,0.129-3.018,2.167-13.311
	c1.658-8.375,1.255-10.383,3.545-11.832C47.919-0.66,52.67-0.069,55.892,1.086z"/>
<path style="fill:#CFCFD1;" d="M341.245,107.637c-0.557,2.188-1.073,4.452-1.537,6.792c-2.256,11.383-2.826,22.212-2.482,31.99
	c6.751,0.333,15.532,1.444,25.585,4.501c16.378,4.981,28.766,12.888,36.3,18.487c8.431,5.806,15.726,8.069,20.05,9.05
	c4.301,0.976,9.796,2.151,13.202-0.568c0.86-0.686,2.179-2.089,3.049-4.168c0.17-0.408,0.959-2.354,0.929-5.208l0,0
	c-0.248-1.212-0.049-2.146-0.036-2.23c0.09-0.573-1.82-4.011-10.422-16.38c-16.833-14.848-20.667-55.108-39.245-64.42
	C369.699,76.991,352.177,104.161,341.245,107.637z"/>
<path style="fill:#FFFFFF;" d="M2.779,72.598c-0.829-2.377-2.816-8.202-2.778-14.197c0.061-9.742,5.469-40.24,8.37-43.642l0,0
	c1.669-3.675,7.404-8.161,21.713-12.263c0,0,14.776-4.236,25.375-1.527c1.714,0.438,3.455,1.159,4.367,2.615
	c1.429,2.282-0.004,5.049-0.202,5.411c-1.121,2.053-2.836,2.534-6.986,4.277c-9.047,3.799-10.183,5.412-10.469,6.915
	c-0.347,1.827,0.547,3.569,0.833,4.125c4.578,8.915,25.496,9.925,30.468,10.165c2.694,0.13,7.377-0.017,16.743-0.311
	c0,0,7.431-0.233,14.104-0.568c20.05-1.007,72.885-6.966,110.229-8.732c34.541-1.633,59.402,0.152,88.098,2.213
	c16.682,1.198,33.096,2.828,53.745,8.002c14.67,3.676,32.59,9.42,52.007,20.892c9.446,5.581,30.315,18.163,30.897,30.819
	c0.041,0.894-0.306,27.452-0.948,32.191c-1.462,10.806-2.523,11.586-3.221,18.431c-0.673,6.596-0.347,12.049-0.059,16.866
	c0.285,4.76,0.778,8.852,1.241,12.002c-2.596-3.235-6.481-7.731-11.694-12.585c-9.346-8.702-21.148-16.864-42.191-25.693
	c-28.327-11.886-55.154-17.325-73.537-19.968c-15.457-1.792-39.107-3.755-67.486-2.788c-26.35,0.898-50.496,4.108-62.918,5.787
	c0,0-58.243,8.239-89.78,1.382c-3.82-0.83-12.058-2.621-17.339-9.045c-1.562-1.899-1.598-2.663-4.933-10.615
	c-1.755-4.185-5.448-12.923-9.477-20.67c-1.505-2.894-3.828-7.119-7.078-12.14c-3.738-0.44-8.708-0.693-14.311,0.023
	c-5.159,0.659-24.357,3.112-27.501,15.808c-0.756,3.053-0.397,5.943,0.052,7.966C6.495,81.127,4.43,77.335,2.779,72.598z"/>
</svg>
