<?xml version="1.0" encoding="utf-8"?>
<!-- Generator: Adobe Illustrator 24.3.0, SVG Export Plug-In . SVG Version: 6.00 Build 0)  -->
<svg version="1.1" id="canvas" xmlns="http://www.w3.org/2000/svg" xmlns:xlink="http://www.w3.org/1999/xlink" x="0px" y="0px"
	 viewBox="0 0 987.9 231.5" style="enable-background:new 0 0 987.9 231.5;" xml:space="preserve">
<style type="text/css">
	.st0{fill:#93690D;stroke:#93690D;stroke-width:2;}
</style>
<path class="st0" d="M55.5,65.4c-0.6-1.5-1.7-2.8-4.1-3.7c-2.4-0.9-4.5-1.4-8-0.7s-5.9,1.5-9.6,4.3c-3.7,2.8-5.5,4.6-9,9.6
	c-3.5,4.9-5.4,7.9-8.6,15.1c-3.1,7.2-4.7,11.6-7.1,20.9s-3.6,14.9-4.8,25.4c-1.2,10.6-1.5,16.8-1.1,27.5s1,16.6,3.1,26.1
	c2.1,9.4,3.8,14.2,7.5,21.1c3.7,6.9,6.1,9.9,10.9,13.4c4.9,3.5,7.9,4.5,13.3,4.2s8.7-1.8,14.1-5.9c5.4-4.1,8.2-7.4,12.9-14.6
	c4.6-7.2,6.9-12.1,10.2-21.6c3.4-9.5,4.8-15.3,6.5-26s2.2-16.9,2.2-27.6c0-10.7-0.5-16.4-2.2-26c-1.7-9.5-3.1-14.1-6.2-21.6
	S70.3,74.4,66,69.4s-7.1-6.9-12-9s-7.9-2.2-12.5-1.5c-4.7,0.7-7.2,2-10.8,4.9s-5.2,5.4-7.1,9.8s-2.1,7.5-2.3,12.1
	c-0.1,4.6,0.4,7.4,1.6,10.9c1.1,3.5,2.6,5.3,4.1,6.4c1.4,1,2.7,0.4,3.2-1.2s-0.4-3.5-0.9-6.7s-1.5-5.4-1.5-9.2c0-3.9,0-6.5,1.3-10
	c1.3-3.6,2.5-5.4,5.2-7.8c2.6-2.4,4.4-3.5,8-4.2s5.9-1,10.1,0.6c4.2,1.6,6.9,3,10.9,7.4c4.1,4.4,6.3,7.6,9.4,14.7
	c3.2,7.1,4.6,11.6,6.4,20.9c1.7,9.3,2.3,15,2.3,25.5s-0.4,16.6-2.2,27.2c-1.8,10.5-3.3,16.2-6.7,25.5c-3.4,9.2-5.8,13.9-10.3,20.8
	s-7.4,9.8-12.3,13.5s-7.5,4.7-12.1,5c-4.6,0.4-6.8-0.2-11-3.2c-4.3-3-6.7-5.6-10.3-12s-5.4-11.1-7.5-20.2c-2.1-9.2-2.8-15-3.1-25.6
	c-0.4-10.5-0.1-16.7,1.2-27.1c1.2-10.4,2.6-15.9,5.1-25c2.5-9,4.2-13.4,7.5-20.1c3.3-6.8,5.4-9.5,9-13.7c3.5-4.1,5.5-5.4,8.7-7
	s4.9-0.9,7.4-1.1s3.3,0.3,5.2,0.1c1.9-0.1,3.1,0.2,4.3-0.7C55.3,68.2,56.1,66.9,55.5,65.4"/>
<path class="st0" d="M101.5,135.7c-1,1.1-1.4,2.1-1.6,5.2c-0.2,3.1,0.5,5.2,0.7,10.3c0.3,5.1,0.4,8.7,0.6,15.3
	c0.2,6.5,0.1,10.7,0.3,17.4c0.2,6.7,0.2,10.4,0.7,15.9s0,8.6,1.8,11.5c1.7,2.9,4.3,3.9,6.9,3.1s3.8-2.8,6.2-7.3
	c2.4-4.5,3.4-8.2,5.9-15.3c2.6-7.1,4-12.1,7-20s4.8-12.8,8.1-19.6c3.2-6.8,5.2-10.5,8.1-14.5c3-4.1,4.4-5,6.7-5.8
	c2.2-0.9,2.5-0.3,4.6,1.5s3.4,3.7,5.7,7.7s3.8,7.1,6,12.3s3.4,8.4,5.1,13.5c1.7,5.1,2.5,7.9,3.3,12.1c0.8,4.2,0.7,6.2,0.9,8.8
	s0.4,3.2,0,4.1c-0.4,1-0.8,0.9-2.1,0.6c-1.4-0.2-2.5-1-4.6-1.7c-2.2-0.7-3.9-1-6.3-1.9c-2.4-1-3.8-1.8-5.5-2.8
	c-1.8-1-2.6-1.4-3.3-2.4c-0.6-1-0.6-1.3,0.2-2.6s1.5-2,3.8-3.9s4-3.3,7.8-5.7c3.8-2.3,6.5-3.7,11.1-6.1c4.7-2.4,7.4-3.8,12.2-6
	s7.5-3.6,11.6-5s6.2-1.6,8.8-1.9c2.6-0.2,3-0.3,4.2,0.8s1.3,1.8,1.7,4.7s0.6,5.3,0.5,9.7s-0.5,7.5-0.8,12.4c-0.4,4.8-1,7.6-1.1,11.8
	s-0.7,6.5,0.4,9.4c1.1,2.9,2.7,4.3,5.2,5s4.7,0.6,7.5-1.5s3.6-4.5,6.4-8.8c2.8-4.4,4.2-7.5,7.4-13.1c3.1-5.6,5.1-9.5,8.2-14.8
	c3.1-5.2,5.3-8.1,7.5-11.3c2.1-3.2,2.8-4.3,3.3-4.7c0.6-0.4-0.5,0.1-0.5,2.7c0,2.6,0.3,5.4,0.4,10.1c0.1,4.8-0.2,8.5-0.1,13.7
	s-0.3,8.3,0.6,12.5c0.8,4.2,1.3,6.5,3.6,8.6c2.3,2.1,4.7,2.9,7.8,1.9c3.1-1,4.6-3.1,7.9-6.8c3.2-3.7,4.9-6.8,8.3-11.8
	s5.5-8.9,8.5-13.4c3.1-4.5,5.1-6.7,6.8-9.2c1.8-2.5,1.6-3.3,2-3.1s-0.3,1.2,0,4.3s0.7,6.2,1.5,11s1,8.3,2.5,13.2s2.1,7.9,5,11.4
	s5,5.2,9.4,6c4.3,0.8,7.5-0.4,12.2-2s7.4-3.5,11.2-6.1c3.8-2.6,6.6-5,7.6-7.1s-0.4-3.7-2.6-3.3s-4.7,3.2-8.4,5.3
	c-3.7,2.2-6.1,4.1-9.9,5.6s-6.2,2.4-9.2,2s-3.9-1.2-5.7-3.8c-1.8-2.7-2.4-5.2-3.5-9.6c-1.1-4.4-1.2-7.7-1.9-12.6
	c-0.7-4.8-0.3-8.1-1.7-11.7c-1.4-3.5-2.9-5.2-5.4-5.9c-2.6-0.7-4.5-0.2-7.4,2.3s-4,5.5-7.2,10.2s-5.2,8.4-8.6,13.3
	c-3.4,4.9-5.5,7.7-8.2,11c-2.8,3.3-4.2,4.3-5.6,5.4c-1.4,1.1-0.9,1.4-1.4,0.2s-0.8-2.6-1.1-6.2c-0.3-3.6-0.4-6.6-0.5-11.7
	c-0.1-5.1,0.3-8.7,0.2-13.8c-0.1-5,0.6-8.2-0.8-11.5c-1.4-3.2-3.4-4.7-6.1-4.7s-4.4,1.3-7.3,4.7c-3,3.4-4.3,6.8-7.4,12.1
	c-3.2,5.4-5.1,9.3-8.4,14.7s-5.1,8.4-8,12.2s-4.8,4.9-6.3,6.9c-1.6,2-1.3,2.9-1.5,3s0.6-0.5,0.6-2.5c0.1-2-0.4-3.9-0.4-7.7
	c0.1-3.8,0.4-6.7,0.7-11.5s1-7.9,1.1-12.7s0.6-7.5-0.4-11.3s-2-5.8-4.6-7.9c-2.6-2.1-4.6-2.6-8.4-2.5c-3.8,0.1-5.9,1.2-10.4,2.8
	c-4.5,1.7-7.1,3.2-12,5.5s-7.6,3.6-12.4,5.8c-4.8,2.3-7.6,3.3-11.8,5.5s-6.4,2.9-9.5,5.4c-3,2.4-4.4,3.8-5.6,6.7
	c-1.2,3-1.1,5-0.3,8.1s1.8,4.8,4.2,7.2c2.3,2.4,4.3,3.3,7.5,4.8s5.1,2.4,8.5,2.7c3.3,0.3,5.4-0.1,8.1-1.3c2.7-1.2,3.9-2.4,5.3-4.8
	s1.9-3.7,1.9-7.1c-0.1-3.4-0.9-5.4-2.1-9.9c-1.2-4.5-2.1-7.2-3.9-12.4c-1.8-5.3-2.8-8.6-5-14s-3.4-8.7-6.1-13.1
	c-2.7-4.4-4-7-7.4-9.1c-3.4-2.2-5.9-3-9.4-1.7c-3.6,1.2-5.1,3.3-8.4,7.9c-3.3,4.7-4.9,8.3-8.1,15.4c-3.3,7-5.1,11.9-8.2,19.8
	c-3.2,7.9-4.9,12.9-7.7,19.8c-2.8,6.9-4.5,10.4-6.5,14.5c-1.9,4.2-2.7,5.4-3.3,6.3c-0.6,0.9,0.5,0.6,0.1-1.8c-0.4-2.4-1.4-4.9-2-10
	s-0.9-8.9-1.2-15.5c-0.2-6.5,0-10.8,0.1-17.3s0.3-10.1,0.4-15.3c0.2-5.2,0.7-7.3,0.4-10.4c-0.3-3.1-1-4.2-2.1-5.2
	S102.5,134.6,101.5,135.7"/>
<path class="st0" d="M448.5,97.5c-1.1,0.4-2.1,0.6-2.6,2.7c-0.6,2-0.6,3.6-0.1,7.5c0.4,3.9,1.2,6.4,2.4,12.1
	c1.2,5.7,1.8,9.4,3.5,16.2c1.6,6.8,2.7,10.8,4.7,18c2,7.1,3.1,11,5.2,17.7s3.2,10.2,5.3,15.8c2.1,5.6,3,8.1,5,11.9s2.9,5.6,5.3,7
	s4.5,1.2,6.9,0.2s3.7-2.8,5-5.1s1.8-3.9,1.7-6.2c-0.1-2.3-1.1-4.1-2.5-5.2c-1.3-1.1-2.8-1-4.3-0.2s-2.4,2.5-3,4.2
	c-0.7,1.8-0.4,3-0.3,4.7s0.7,3.1,0.7,3.8s0.1,0.7-0.9-0.5c-0.9-1.2-1.9-2.2-3.9-5.4c-1.9-3.3-3.5-5.6-5.7-10.9
	c-2.3-5.2-3.5-8.8-5.6-15.4c-2.2-6.6-3.3-10.4-5.1-17.5c-1.8-7.1-2.8-11.1-4.1-17.9c-1.2-6.8-1.7-10.5-2.2-16.1s0-8.1-0.1-11.8
	c-0.1-3.7,0-4.9-0.5-6.7c-0.5-1.8-0.8-1.8-1.8-2.4C450.4,97.4,449.6,97,448.5,97.5"/>
<path class="st0" d="M443.7,169.5c0.3,1.1,0.4,1.8,2.3,2.7s3.2,1.5,7.2,1.6c4.1,0,7.1-0.2,13.1-1.3c6-1,9.6-1.7,17-3.8
	s12-3.7,19.9-6.8s12.3-4.9,19.8-8.6c7.5-3.7,11.4-5.9,17.7-9.8c6.3-3.9,9.2-6.1,13.9-9.7c4.6-3.6,6.6-5.3,9.2-8.2
	c2.6-2.9,3.3-4.6,3.6-6.1c0.3-1.6-0.7-2.2-2.1-1.6c-1.4,0.6-2.2,2-4.8,4.5c-2.7,2.5-4.2,4.5-8.5,8.2c-4.3,3.6-7,6-13.1,9.9
	s-9.9,6.2-17.3,9.8c-7.4,3.6-11.7,5.4-19.5,8.3c-7.9,2.9-12.5,4.4-19.7,6.1c-7.2,1.7-10.8,2.2-16.6,2.4c-5.8,0.3-8.4-0.7-12.1-1.1
	c-3.7-0.4-4.5-0.9-6.3-0.8c-1.8,0.1-2.1,0.5-2.9,1.3C443.8,167.5,443.4,168.4,443.7,169.5"/>
<path class="st0" d="M661,59.5c1.4-0.5,2.3-1.2,3.8-3.6c1.5-2.4,1.8-4.6,3.8-8.5s3.3-6.6,6.1-11.1c2.9-4.5,4.8-7.2,8.2-11.3
	c3.5-4.1,5.5-6.3,9.1-9.3c3.5-2.9,5.6-4.2,8.7-5.5c3.1-1.3,4.1-1.5,6.7-1s3.6,0.9,6.1,3.5c2.5,2.5,3.9,4.4,6.3,9.2
	c2.4,4.9,3.6,8.1,5.5,15c1.9,7,2.7,11.2,3.8,19.9c1,8.7,1.4,13.7,1.5,23.5c0.1,9.9-0.1,15.4-1,25.8c-0.8,10.4-1.6,16.1-3.3,26.4
	s-2.8,15.7-5.4,25c-2.5,9.3-4.1,13.9-7.3,21.4s-5.1,10.9-8.6,16c-3.6,5.1-5.6,7.1-9.2,9.6s-5.4,2.7-8.7,2.8s-4.9-0.7-7.8-2.5
	c-2.9-1.8-4.4-3.3-6.5-6.3s-3-5.2-3.8-8.9s-1-5.8-0.1-9.7c0.8-3.9,1.6-6,4.3-9.9s4.7-5.9,9.3-9.5c4.6-3.5,7.6-5.2,13.8-8.2
	c6.1-3,9.8-4.3,16.9-6.8c7.1-2.6,11.2-3.7,18.6-6c7.5-2.3,11.5-3.4,18.7-5.6c7.2-2.2,10.9-3.3,17.2-5.5s9.4-3.3,14.3-5.2
	c4.9-2,7.3-2.5,10.2-4.6c2.8-2.1,3.8-3.6,4-6s-0.6-4.4-2.8-5.9s-4.6-2.1-8.4-1.5c-3.8,0.6-6.2,1.8-10.5,4.3
	c-4.3,2.6-6.8,4.3-10.9,8.5c-4.1,4.2-6.4,6.9-9.8,12.4c-3.3,5.5-4.9,9-6.9,15.1s-2.7,9.7-3.1,15.4c-0.4,5.7-0.2,8.7,1.1,13.1
	c1.3,4.4,2.5,6.8,5.5,8.8c3.1,2,5.8,2.3,9.7,1.3s6-2.7,9.8-6.3c3.8-3.7,5.6-6.6,9-12c3.4-5.5,5.1-9.2,7.8-15.4s4-10.1,5.8-15.7
	c1.9-5.6,3.1-8.8,3.5-12.4c0.3-3.6-0.7-5.1-1.9-5.5s-3.2,0.6-4.1,3.6c-0.9,3-0.6,6.1-0.5,11.6c0.1,5.5,0.2,9.6,0.9,15.9
	c0.7,6.2,1.3,9.9,2.8,15.3c1.4,5.4,2.1,8.1,4.3,11.8c2.3,3.7,3.8,5.7,7,6.8s5.7,0.7,9-1.4c3.3-2.1,4.5-4.4,7.4-8.9s4.3-7.7,7-13.6
	c2.7-5.9,4-9.9,6.5-15.9c2.5-6.1,3.7-9.6,5.8-14.5s3.8-7,4.8-9.9c0.9-2.9,0.3-4.2-0.1-4.4c-0.4-0.2-1.8,0.6-2,3.5s0.6,5.7,0.9,11
	c0.3,5.3,0.3,9.2,0.5,15.4c0.3,6.2,0.3,10.2,0.7,15.7c0.4,5.6,0.1,8.5,1.3,12.1s2.4,5.3,4.9,6.2s4.8,0.6,7.5-1.6
	c2.7-2.2,3.4-5,5.9-9.5s3.8-7.9,6.5-13.2s4.3-8.6,6.8-13.1c2.6-4.6,4.4-6.9,5.9-9.6c1.5-2.7,1.6-3.7,1.7-3.9
	c0.1-0.2-1.2,0.4-1.2,2.8c-0.1,2.4,0.4,4.6,0.8,9.1c0.4,4.4,0.6,7.7,1.2,13.1c0.7,5.4,0.8,8.6,2.1,13.6s1.9,7.8,4.2,11.5
	c2.4,3.8,4,5.8,7.7,7.2s6.3,1.4,10.8,0s7-3.1,11.7-7s7.3-6.8,12-12.5c4.7-5.8,7.3-9.6,11.4-16.2c4.1-6.6,6.2-10.6,9-17
	c2.8-6.4,3.8-9.7,4.9-14.9c1.1-5.2,1.7-7.7,0.6-11.2c-1.1-3.5-2.9-5.3-6-6.2c-3.1-0.9-5.7-0.5-9.3,1.7s-5.6,4.6-8.7,9.4
	c-3.1,4.8-4.8,8.1-6.9,14.6c-2.1,6.5-3.2,10.8-3.4,18.2c-0.2,7.4,0.1,11.8,2.3,18.8c2.3,7,4.1,10.9,9,16.3
	c4.9,5.4,9.2,7.6,15.6,10.8c6.4,3.2,10.6,4.1,16.5,5.3s10.2,1.2,12.8,0.6c2.6-0.6,2.6-2.7,0.2-3.6c-2.4-0.9-6.7,0.3-12.3-0.9
	s-9.6-1.9-15.6-4.9s-10-4.9-14.6-9.8c-4.6-5-6.2-8.5-8.2-15s-2.2-10.6-1.9-17.5c0.4-6.9,1.6-10.9,3.8-16.9c2.2-6,4.2-8.9,7.2-13
	c3-4,5.2-5.3,7.7-7.2c2.5-1.9,3.4-2.2,4.6-2.1c1.3,0.1,1.3,0.3,1.7,2.6c0.4,2.3,1,4.3,0.3,9s-1.5,8.1-4,14.2s-4.6,10.1-8.6,16.5
	s-6.7,10.2-11.3,15.6c-4.6,5.4-7.3,8-11.8,11.4c-4.4,3.4-6.9,4.5-10.3,5.5c-3.5,1.1-4.7,0.9-7.1-0.1c-2.4-1-3.2-1.9-4.9-4.9
	s-2.6-5.3-3.6-9.9s-1.1-7.8-1.5-12.9c-0.4-5.2-0.2-8.4-0.4-13c-0.3-4.6,0.4-7.2-0.9-10.1c-1.3-2.9-3.1-4.2-5.6-4.4
	c-2.5-0.2-4.2,0.5-6.8,3.4c-2.5,2.8-3.2,5.9-5.8,10.6c-2.5,4.8-4.2,8-6.9,13.2c-2.8,5.2-4.5,8.5-7,12.7s-4.1,5.9-5.4,8.1
	c-1.3,2.2-0.8,3.1-1.1,2.8s-0.1-1.2-0.5-4.3c-0.5-3.1-1.3-5.8-1.8-11.1s-0.5-9.3-0.6-15.5s0.2-10.1,0.2-15.5c0-5.4,0.6-8.4-0.4-11.7
	c-1-3.3-2.7-4.4-4.7-4.6s-3.5,0.8-5.3,3.7c-1.9,2.9-2.1,5.6-4,10.7s-3,8.6-5.5,14.7c-2.4,6-3.9,9.9-6.7,15.5s-4.5,8.7-7.2,12.6
	c-2.7,3.9-4.3,5.3-6.3,6.9c-2,1.6-2,1.9-3.5,1.2c-1.5-0.6-2.4-1.5-4-4.4s-2.9-5.3-4.2-10.3s-1.8-8.6-2.3-14.5
	c-0.5-6-0.3-10-0.2-15.3s1.2-8,0.8-11.1s-1.7-4.2-3-4.2c-1.2,0-2.2,1.1-3.3,4.4c-1.2,3.3-0.9,6.7-2.4,12.2s-2.7,9.4-5.3,15.3
	c-2.6,6-4.5,9.5-7.8,14.6c-3.3,5-5.5,7.6-8.7,10.6c-3.3,3-5.2,3.7-7.6,4.5c-2.5,0.8-3,0.8-4.7-0.4s-2.7-2.1-3.7-5.5
	c-1-3.3-1.7-6.1-1.5-11.2c0.2-5.1,0.7-8.6,2.6-14.3c1.8-5.7,3.4-9.1,6.6-14.1c3.2-5,5.5-7.6,9.5-11.1s6.5-4.7,10.4-6.4
	c3.8-1.7,6.1-1.4,8.9-2.1c2.8-0.6,3.9-0.8,5.1-1.2c1.2-0.4,1.5-0.9,0.9-0.6s-1.3,0.6-3.8,2.1s-4.2,3.2-8.7,5.4
	c-4.5,2.2-7.6,3.5-13.7,5.8c-6.1,2.3-9.8,3.5-17,5.7c-7.1,2.3-11.1,3.3-18.6,5.6s-11.6,3.4-18.8,5.9s-11,3.7-17.5,6.7
	s-9.6,4.5-14.7,8.2c-5.1,3.7-7.4,5.8-10.7,10.1s-4.5,6.8-5.7,11.5s-1.2,7.5-0.3,12.1c0.9,4.7,2,7.4,4.6,11.2
	c2.7,3.8,4.8,5.8,8.7,7.9c3.9,2.1,6.5,2.9,10.9,2.5s6.8-1.3,10.9-4.4c4.1-3.1,6-5.5,9.6-11.1s5.4-9.1,8.5-16.9s4.6-12.4,7.1-21.9
	c2.5-9.4,3.6-14.9,5.3-25.2c1.7-10.4,2.5-16.1,3.4-26.6s1.2-16,1.2-26s-0.2-15-1.1-23.9c-0.8-8.9-1.6-13.2-3.2-20.5
	c-1.6-7.3-2.6-10.7-4.9-16.1c-2.3-5.4-3.5-7.8-6.6-11.1s-5.2-4.6-9-5.4s-6.1-0.1-10.1,1.5s-6,3.4-9.9,6.7s-5.9,5.7-9.6,9.9
	c-3.7,4.3-5.8,6.9-9,11.4c-3.3,4.5-4.9,7.1-7.3,11s-4,5.7-4.9,8.5c-1,2.8-0.6,4.3,0,5.7C658.4,59.5,659.6,59.9,661,59.5"/>
</svg>
