<?xml version="1.0" encoding="utf-8"?>
<!-- Generator: Adobe Illustrator 24.3.0, SVG Export Plug-In . SVG Version: 6.00 Build 0)  -->
<svg version="1.1" id="Layer_1" xmlns="http://www.w3.org/2000/svg" xmlns:xlink="http://www.w3.org/1999/xlink" x="0px" y="0px"
	 viewBox="0 0 561.2 583.6" style="enable-background:new 0 0 561.2 583.6;" xml:space="preserve">
<style type="text/css">
	.st0{display:none;}
</style>
<g>
	<path d="M479.3,20.1h-72.3L300.6,60.6l-131.5,96.4L79.3,257.9l-20.8,27.4l-20.8,6.1l12.2,78.2l51.4,43.8h76.7l38.4-29.6l-29.6-18.6
		l20.8-14.2l173.2-106.3L535.2,71.6V40.9L479.3,20.1z M396.8,108.4c-11.4,6.9-23.2,13.2-34.2,20.7c-51.7,34.9-97.9,76.4-141.4,121
		c-35.7,36.5-69.2,74.8-97.3,117.7c-6.6,10.1-12.5,20.7-18.6,31c17.8,13.6-40.1-27.2-24.3-16.4c7.9-10.8,15.7-21.7,23.6-32.5
		c33-45.1,66.9-89.4,106.2-129.3c36.5-37,76.6-69.3,123.7-92c21.2-10.2,43.2-18.1,66.4-22.9C399.5,106.8,398.1,107.6,396.8,108.4z"
		/>
	<path class="st0" d="M7.4,575.2c1.3-13.2,2.5-26.5,3.8-39.7c0.7-7.6,2-15.2,2.2-22.9c0.2-7.7,3.2-14.1,6.7-20.6
		c9.7-17.7,19.5-35.3,28.6-53.2c5.4-10.6,4.9-10.9-4.8-17.4c-15.9-10.7-25.4-26-31.3-43.9c-0.2-0.6-0.2-1.2-0.5-2.5
		c10.9,3.1,21.2,6.1,32.9,9.4c-19.4-41.2-27.3-82.8-15.9-127.2c8.8,4.8,17.5,9.5,26.5,14.5c5.1-6.6,10-13,15-19.5
		c38.8-50.4,80.4-98.2,128.6-139.9c52.8-45.7,112.1-79.5,180.2-96.5c35.2-8.8,70.7-11.3,106.4-3.5c23.5,5.1,45.1,14.7,64.4,29.2
		c2.8,2.1,3.6,4.3,3.4,7.6c-0.9,11.2-5.1,21.3-10.3,31.1c-12.2,23-28.2,43.3-45.8,62.2c-73.1,79.1-155.6,146.9-246.8,204.2
		c-9.8,6.1-20.4,11.1-31.1,16.9c10,5.5,19.8,10.9,30.8,17c-5.7,5.8-10.5,11.5-16.1,16.2c-18.4,15.4-40.3,23.9-63.4,29.3
		c-14.5,3.4-29.4,5.5-44.4,8.2c5.8,5.4,12,11,18.1,16.7c-0.4,0.7-0.8,1.3-1.2,2c-8,0-16.1,0.8-23.9-0.2c-12-1.5-23.9-4.1-35.7-6.8
		c-3.2-0.7-4.4,0.4-5.5,2.5c-7.2,13.5-14.5,26.9-21.6,40.5c-12.6,24.2-25.1,48.5-37.9,72.6C16.4,566.6,7.9,575.4,7.4,575.2z
		 M153.6,362.2c21.6-7.5,39.9-18.4,57.6-30.3c49.4-33.4,98.1-67.8,147.5-101.2c41-27.8,78.7-59.4,113.8-94.2
		c18.4-18.2,36.1-37.1,48.8-59.8c3.7-6.6,5.8-14.1,8.3-21.3c1-2.8,0.2-5.3-2.9-7c-14-8-28.3-15.1-44.3-18.6
		c-24.2-5.3-48.2-5.3-72.4-0.9c-38.2,6.9-73.3,22-106.5,41.5c-70.5,41.4-130.1,95.4-181.3,158.9c-17.8,22.1-34.1,45.2-45.5,71.4
		c-1.5,3.4-2.8,6.9-4.3,10.6c-7.6-3.6-14.8-7.1-22-10.5c-3.7,21.4,14.9,71,30.7,81.8c7.8-10.8,15.6-21.7,23.6-32.5
		c33-45.1,66.9-89.4,106.2-129.3c36.5-37,76.6-69.3,123.7-92c21.2-10.2,43.2-18.1,66.4-22.9c-1.2,1.1-2.6,1.9-3.9,2.7
		c-11.4,6.9-23.2,13.2-34.2,20.7c-51.7,34.9-97.9,76.4-141.4,121c-35.7,36.5-69.2,74.9-97.3,117.7c-6.6,10.1-12.5,20.7-18.6,31
		c17.8,13.6,75.4,4.2,90.7-14.4C182.1,377.1,168.3,369.9,153.6,362.2z"/>
	<path d="M7.4,575.2c1.3-13.2,2.5-26.5,3.8-39.7c0.7-7.6,2-15.2,2.2-22.9c0.2-7.7,3.2-14.1,6.7-20.6c9.7-17.7,19.5-35.3,28.6-53.2
		c5.4-10.6,4.9-10.9-4.8-17.4c-15.9-10.7-25.4-26-31.3-43.9c-0.2-0.6-0.2-1.2-0.5-2.5c10.9,3.1,21.2,6.1,32.9,9.4
		c-19.4-41.2-27.3-82.8-15.9-127.2c8.8,4.8,17.5,9.5,26.5,14.5c5.1-6.6,10-13,15-19.5c38.8-50.4,80.4-98.2,128.6-139.9
		c52.8-45.7,112.1-79.5,180.2-96.5c35.2-8.8,70.7-11.3,106.4-3.5c23.5,5.1,45.1,14.7,64.4,29.2c2.8,2.1,3.6,4.3,3.4,7.6
		c-0.9,11.2-5.1,21.3-10.3,31.1c-12.2,23-28.2,43.3-45.8,62.2c-73.1,79.1-155.6,146.9-246.8,204.2c-9.8,6.1-20.4,11.1-31.1,16.9
		c10,5.5,19.8,10.9,30.8,17c-5.7,5.8-10.5,11.5-16.1,16.2c-18.4,15.4-40.3,23.9-63.4,29.3c-14.5,3.4-29.4,5.5-44.4,8.2
		c5.8,5.4,12,11,18.1,16.7c-0.4,0.7-0.8,1.3-1.2,2c-8,0-16.1,0.8-23.9-0.2c-12-1.5-23.9-4.1-35.7-6.8c-3.2-0.7-4.4,0.4-5.5,2.5
		c-7.2,13.5-14.5,26.9-21.6,40.5c-12.6,24.2-25.1,48.5-37.9,72.6C16.4,566.6,7.9,575.4,7.4,575.2z M153.6,362.2
		c21.6-7.5,39.9-18.4,57.6-30.3c49.4-33.4,98.1-67.8,147.5-101.2c41-27.8,78.7-59.4,113.8-94.2c18.4-18.2,36.1-37.1,48.8-59.8
		c3.7-6.6,5.8-14.1,8.3-21.3c1-2.8,0.2-5.3-2.9-7c-14-8-28.3-15.1-44.3-18.6c-24.2-5.3-48.2-5.3-72.4-0.9
		c-38.2,6.9-73.3,22-106.5,41.5c-70.5,41.4-130.1,95.4-181.3,158.9c-17.8,22.1-34.1,45.2-45.5,71.4c-1.5,3.4-2.8,6.9-4.3,10.6
		c-7.6-3.6-14.8-7.1-22-10.5c-3.7,21.4,14.9,71,30.7,81.8c1.4,3.3,23.6,17.6,24.3,16.4c17.8,13.6,75.4,4.2,90.7-14.4
		C182.1,377.1,168.3,369.9,153.6,362.2z"/>
	<path class="st0" d="M7.4,575.2c1.3-13.2,2.5-26.5,3.8-39.7c0.7-7.6,2-15.2,2.2-22.9c0.2-7.7,3.2-14.1,6.7-20.6
		c9.7-17.7,19.5-35.3,28.6-53.2c5.4-10.6,4.9-10.9-4.8-17.4c-15.9-10.7-25.4-26-31.3-43.9c-0.2-0.6-0.2-1.2-0.5-2.5
		c10.9,3.1,21.2,6.1,32.9,9.4c-19.4-41.2-27.3-82.8-15.9-127.2c8.8,4.8,17.5,9.5,26.5,14.5c5.1-6.6,10-13,15-19.5
		c38.8-50.4,80.4-98.2,128.6-139.9c52.8-45.7,112.1-79.5,180.2-96.5c35.2-8.8,70.7-11.3,106.4-3.5c23.5,5.1,45.1,14.7,64.4,29.2
		c2.8,2.1,3.6,4.3,3.4,7.6c-0.9,11.2-5.1,21.3-10.3,31.1c-12.2,23-28.2,43.3-45.8,62.2c-73.1,79.1-155.6,146.9-246.8,204.2
		c-9.8,6.1-20.4,11.1-31.1,16.9c10,5.5,19.8,10.9,30.8,17c-5.7,5.8-10.5,11.5-16.1,16.2c-18.4,15.4-40.3,23.9-63.4,29.3
		c-14.5,3.4-29.4,5.5-44.4,8.2c5.8,5.4,12,11,18.1,16.7c-0.4,0.7-0.8,1.3-1.2,2c-8,0-16.1,0.8-23.9-0.2c-12-1.5-23.9-4.1-35.7-6.8
		c-3.2-0.7-4.4,0.4-5.5,2.5c-7.2,13.5-14.5,26.9-21.6,40.5c-12.6,24.2-25.1,48.5-37.9,72.6C16.4,566.6,7.9,575.4,7.4,575.2z"/>
</g>
</svg>
