<?xml version="1.0" encoding="utf-8"?>
<!-- Generator: Adobe Illustrator 24.3.0, SVG Export Plug-In . SVG Version: 6.00 Build 0)  -->
<svg version="1.1" id="Layer_1" xmlns="http://www.w3.org/2000/svg" xmlns:xlink="http://www.w3.org/1999/xlink" x="0px" y="0px"
	 viewBox="0 0 561.2 583.6" style="enable-background:new 0 0 561.2 583.6;" xml:space="preserve">
<style type="text/css">
	.st0{display:none;}
</style>
<g>
	<path d="M134.7,216.1h-20.1l-29.5,11.2l-36.6,26.8l-24.9,28l-5.8,7.6l-5.8,1.7l3.4,21.7l14.3,12.1H51l10.7-8.2l-8.2-5.2l5.8-3.9
		l48.1-29.5l42.9-48.1v-8.5L134.7,216.1z M111.8,240.6c-3.2,1.9-6.4,3.7-9.5,5.8C88,256,75.2,267.6,63,279.9
		c-9.9,10.1-19.2,20.8-27,32.7c-1.9,2.8-3.5,5.8-5.2,8.6c5,3.8-11.1-7.5-6.7-4.6c2.2-3,4.4-6,6.6-9c9.2-12.5,18.6-24.8,29.5-35.9
		c10.1-10.3,21.2-19.2,34.3-25.5c5.9-2.8,12-5,18.4-6.4C112.6,240.1,112.1,240.3,111.8,240.6z"/>
	<path class="st0" d="M3.6,370.2c0.4-3.7,0.7-7.3,1-11c0.2-2.1,0.6-4.2,0.6-6.4c0-2.1,0.9-3.9,1.9-5.7c2.7-4.9,5.4-9.8,7.9-14.8
		c1.5-3,1.3-3-1.3-4.8c-4.4-3-7-7.3-8.7-12.2c-0.1-0.1-0.1-0.4-0.1-0.7c3,0.9,5.9,1.7,9.1,2.6c-5.4-11.5-7.5-23-4.4-35.3
		c2.4,1.3,4.9,2.7,7.3,4c1.4-1.9,2.8-3.6,4.1-5.4c10.8-14,22.4-27.2,35.7-38.9c14.7-12.7,31.2-22.1,50-26.8c9.8-2.4,19.6-3.1,29.5-1
		c6.5,1.4,12.5,4.1,17.9,8.1c0.8,0.6,1,1.2,1,2.1c-0.2,3.1-1.4,5.9-2.9,8.7c-3.4,6.4-7.8,12-12.7,17.2c-20.3,22-43.2,40.8-68.5,56.7
		c-2.7,1.7-5.7,3.1-8.7,4.7c2.8,1.6,5.5,3,8.6,4.7c-1.6,1.6-2.9,3.2-4.4,4.5c-5.1,4.3-11.2,6.7-17.6,8.1c-4,1-8.1,1.6-12.4,2.3
		c1.6,1.5,3.3,3,5,4.7c-0.1,0.2-0.2,0.4-0.4,0.6c-2.2,0-4.4,0.2-6.7-0.1c-3.3-0.4-6.7-1.1-9.9-1.9c-0.9-0.2-1.3,0.1-1.6,0.7
		c-2,3.8-4,7.5-6,11.2c-3.5,6.7-7,13.5-10.5,20.1C6.1,367.9,3.8,370.3,3.6,370.2z M44.2,311.1c6-2.1,11.1-5.1,16-8.4
		c13.7-9.3,27.2-18.8,40.9-28.1c11.4-7.7,21.8-16.5,31.6-26.1c5.1-5,10-10.3,13.5-16.6c1-1.9,1.6-3.9,2.3-5.9
		c0.3-0.8,0.1-1.5-0.8-1.9c-3.9-2.2-7.8-4.2-12.3-5.2c-6.7-1.5-13.4-1.5-20.1-0.2c-10.6,1.9-20.4,6.1-29.6,11.5
		c-19.6,11.5-36.1,26.5-50.3,44.1c-5,6.1-9.5,12.6-12.7,19.8c-0.4,1-0.8,1.9-1.2,3c-2.1-1-4.1-2-6.1-2.9c-1,5.9,4.1,19.7,8.5,22.7
		c2.1-3,4.4-6,6.6-9c9.2-12.5,18.6-24.8,29.5-35.9c10.1-10.3,21.2-19.2,34.3-25.5c5.9-2.8,12-5,18.4-6.4c-0.4,0.3-0.7,0.5-1.1,0.7
		c-3.2,1.9-6.4,3.7-9.5,5.8c-14.4,9.7-27.2,21.2-39.3,33.6c-9.9,10.1-19.2,20.8-27,32.7c-1.9,2.8-3.5,5.8-5.2,8.6
		c5,3.8,20.9,1.2,25.2-4C52.2,315.2,48.3,313.2,44.2,311.1z"/>
	<path d="M3.6,370.2c0.4-3.7,0.7-7.3,1-11c0.2-2.1,0.6-4.2,0.6-6.4c0-2.1,0.9-3.9,1.9-5.7c2.7-4.9,5.4-9.8,7.9-14.8
		c1.5-3,1.3-3-1.3-4.8c-4.4-3-7-7.3-8.7-12.2c-0.1-0.1-0.1-0.4-0.1-0.7c3,0.9,5.9,1.7,9.1,2.6c-5.4-11.5-7.5-23-4.4-35.3
		c2.4,1.3,4.9,2.7,7.3,4c1.4-1.9,2.8-3.6,4.1-5.4c10.8-14,22.4-27.2,35.7-38.9c14.7-12.7,31.2-22.1,50-26.8c9.8-2.4,19.6-3.1,29.5-1
		c6.5,1.4,12.5,4.1,17.9,8.1c0.8,0.6,1,1.2,1,2.1c-0.2,3.1-1.4,5.9-2.9,8.7c-3.4,6.4-7.8,12-12.7,17.2c-20.3,22-43.2,40.8-68.5,56.7
		c-2.7,1.7-5.7,3.1-8.7,4.7c2.8,1.6,5.5,3,8.6,4.7c-1.6,1.6-2.9,3.2-4.4,4.5c-5.1,4.3-11.2,6.7-17.6,8.1c-4,1-8.1,1.6-12.4,2.3
		c1.6,1.5,3.3,3,5,4.7c-0.1,0.2-0.2,0.4-0.4,0.6c-2.2,0-4.4,0.2-6.7-0.1c-3.3-0.4-6.7-1.1-9.9-1.9c-0.9-0.2-1.3,0.1-1.6,0.7
		c-2,3.8-4,7.5-6,11.2c-3.5,6.7-7,13.5-10.5,20.1C6.1,367.9,3.8,370.3,3.6,370.2z M44.2,311.1c6-2.1,11.1-5.1,16-8.4
		c13.7-9.3,27.2-18.8,40.9-28.1c11.4-7.7,21.8-16.5,31.6-26.1c5.1-5,10-10.3,13.5-16.6c1-1.9,1.6-3.9,2.3-5.9
		c0.3-0.8,0.1-1.5-0.8-1.9c-3.9-2.2-7.8-4.2-12.3-5.2c-6.7-1.5-13.4-1.5-20.1-0.2c-10.6,1.9-20.4,6.1-29.6,11.5
		c-19.6,11.5-36.1,26.5-50.3,44.1c-5,6.1-9.5,12.6-12.7,19.8c-0.4,1-0.8,1.9-1.2,3c-2.1-1-4.1-2-6.1-2.9c-1,5.9,4.1,19.7,8.5,22.7
		c0.4,0.9,6.6,4.9,6.7,4.6c5,3.8,20.9,1.2,25.2-4C52.2,315.2,48.3,313.2,44.2,311.1z"/>
	<path class="st0" d="M3.6,370.2c0.4-3.7,0.7-7.3,1-11c0.2-2.1,0.6-4.2,0.6-6.4c0-2.1,0.9-3.9,1.9-5.7c2.7-4.9,5.4-9.8,7.9-14.8
		c1.5-3,1.3-3-1.3-4.8c-4.4-3-7-7.3-8.7-12.2c-0.1-0.1-0.1-0.4-0.1-0.7c3,0.9,5.9,1.7,9.1,2.6c-5.4-11.5-7.5-23-4.4-35.3
		c2.4,1.3,4.9,2.7,7.3,4c1.4-1.9,2.8-3.6,4.1-5.4c10.8-14,22.4-27.2,35.7-38.9c14.7-12.7,31.2-22.1,50-26.8c9.8-2.4,19.6-3.1,29.5-1
		c6.5,1.4,12.5,4.1,17.9,8.1c0.8,0.6,1,1.2,1,2.1c-0.2,3.1-1.4,5.9-2.9,8.7c-3.4,6.4-7.8,12-12.7,17.2c-20.3,22-43.2,40.8-68.5,56.7
		c-2.7,1.7-5.7,3.1-8.7,4.7c2.8,1.6,5.5,3,8.6,4.7c-1.6,1.6-2.9,3.2-4.4,4.5c-5.1,4.3-11.2,6.7-17.6,8.1c-4,1-8.1,1.6-12.4,2.3
		c1.6,1.5,3.3,3,5,4.7c-0.1,0.2-0.2,0.4-0.4,0.6c-2.2,0-4.4,0.2-6.7-0.1c-3.3-0.4-6.7-1.1-9.9-1.9c-0.9-0.2-1.3,0.1-1.6,0.7
		c-2,3.8-4,7.5-6,11.2c-3.5,6.7-7,13.5-10.5,20.1C6.1,367.9,3.8,370.3,3.6,370.2z"/>
</g>
</svg>
