<?xml version="1.0" encoding="utf-8"?>
<!-- Generator: Adobe Illustrator 24.3.0, SVG Export Plug-In . SVG Version: 6.00 Build 0)  -->
<svg version="1.1" id="Layer_1" xmlns="http://www.w3.org/2000/svg" xmlns:xlink="http://www.w3.org/1999/xlink" x="0px" y="0px"
	 viewBox="0 0 561.2 583.6" style="enable-background:new 0 0 561.2 583.6;" xml:space="preserve">
<style type="text/css">
	.st0{display:none;}
</style>
<g>
	<path d="M225.1,189.6H198l-39.9,15.2L108.7,241L75,278.8l-7.8,10.3l-7.8,2.3l4.6,29.3l19.3,16.4H112l14.4-11.1l-11.1-7l7.8-5.3
		l65-39.9l57.9-65v-11.5L225.1,189.6z M194.2,222.7c-4.3,2.6-8.7,5-12.8,7.8c-19.4,13.1-36.7,28.7-53.1,45.4
		c-13.4,13.7-26,28.1-36.5,44.2c-2.5,3.8-4.7,7.8-7,11.6c6.7,5.1-15-10.2-9.1-6.2c3-4.1,5.9-8.1,8.9-12.2
		c12.4-16.9,25.1-33.5,39.9-48.5c13.7-13.9,28.7-26,46.4-34.5c8-3.8,16.2-6.8,24.9-8.6C195.2,222.1,194.6,222.4,194.2,222.7z"/>
	<path class="st0" d="M48,397.9c0.5-5,0.9-9.9,1.4-14.9c0.3-2.9,0.8-5.7,0.8-8.6s1.2-5.3,2.5-7.7c3.6-6.6,7.3-13.2,10.7-20
		c2-4,1.8-4.1-1.8-6.5c-6-4-9.5-9.8-11.7-16.5c-0.1-0.2-0.1-0.5-0.2-0.9c4.1,1.2,8,2.3,12.3,3.5c-7.3-15.5-10.2-31.1-6-47.7
		c3.3,1.8,6.6,3.6,9.9,5.4c1.9-2.5,3.8-4.9,5.6-7.3c14.6-18.9,30.2-36.8,48.3-52.5c19.8-17.1,42.1-29.8,67.6-36.2
		c13.2-3.3,26.5-4.2,39.9-1.3c8.8,1.9,16.9,5.5,24.2,11c1.1,0.8,1.4,1.6,1.3,2.9c-0.3,4.2-1.9,8-3.9,11.7
		c-4.6,8.6-10.6,16.2-17.2,23.3c-27.4,29.7-58.4,55.1-92.6,76.6c-3.7,2.3-7.7,4.2-11.7,6.3c3.8,2.1,7.4,4.1,11.6,6.4
		c-2.1,2.2-3.9,4.3-6,6.1c-6.9,5.8-15.1,9-23.8,11c-5.4,1.3-11,2.1-16.7,3.1c2.2,2,4.5,4.1,6.8,6.3c-0.2,0.3-0.3,0.5-0.5,0.8
		c-3,0-6,0.3-9-0.1c-4.5-0.6-9-1.5-13.4-2.6c-1.2-0.3-1.7,0.2-2.1,0.9c-2.7,5.1-5.4,10.1-8.1,15.2c-4.7,9.1-9.4,18.2-14.2,27.2
		C51.4,394.7,48.2,398,48,397.9z M102.9,318c8.1-2.8,15-6.9,21.6-11.4c18.5-12.5,36.8-25.4,55.3-38c15.4-10.4,29.5-22.3,42.7-35.3
		c6.9-6.8,13.5-13.9,18.3-22.4c1.4-2.5,2.2-5.3,3.1-8c0.4-1.1,0.1-2-1.1-2.6c-5.3-3-10.6-5.7-16.6-7c-9.1-2-18.1-2-27.2-0.3
		c-14.3,2.6-27.5,8.3-40,15.6c-26.5,15.5-48.8,35.8-68,59.6c-6.7,8.3-12.8,17-17.1,26.8c-0.6,1.3-1.1,2.6-1.6,4
		c-2.9-1.4-5.6-2.7-8.3-3.9c-1.4,8,5.6,26.6,11.5,30.7c2.9-4.1,5.9-8.1,8.9-12.2c12.4-16.9,25.1-33.5,39.9-48.5
		c13.7-13.9,28.7-26,46.4-34.5c8-3.8,16.2-6.8,24.9-8.6c-0.5,0.4-1,0.7-1.5,1c-4.3,2.6-8.7,5-12.8,7.8
		c-19.4,13.1-36.7,28.7-53.1,45.4c-13.4,13.7-26,28.1-36.5,44.2c-2.5,3.8-4.7,7.8-7,11.6c6.7,5.1,28.3,1.6,34-5.4
		C113.6,323.6,108.4,320.9,102.9,318z"/>
	<path d="M48,397.9c0.5-5,0.9-9.9,1.4-14.9c0.3-2.9,0.8-5.7,0.8-8.6s1.2-5.3,2.5-7.7c3.6-6.6,7.3-13.2,10.7-20c2-4,1.8-4.1-1.8-6.5
		c-6-4-9.5-9.8-11.7-16.5c-0.1-0.2-0.1-0.5-0.2-0.9c4.1,1.2,8,2.3,12.3,3.5c-7.3-15.5-10.2-31.1-6-47.7c3.3,1.8,6.6,3.6,9.9,5.4
		c1.9-2.5,3.8-4.9,5.6-7.3c14.6-18.9,30.2-36.8,48.3-52.5c19.8-17.1,42.1-29.8,67.6-36.2c13.2-3.3,26.5-4.2,39.9-1.3
		c8.8,1.9,16.9,5.5,24.2,11c1.1,0.8,1.4,1.6,1.3,2.9c-0.3,4.2-1.9,8-3.9,11.7c-4.6,8.6-10.6,16.2-17.2,23.3
		c-27.4,29.7-58.4,55.1-92.6,76.6c-3.7,2.3-7.7,4.2-11.7,6.3c3.8,2.1,7.4,4.1,11.6,6.4c-2.1,2.2-3.9,4.3-6,6.1
		c-6.9,5.8-15.1,9-23.8,11c-5.4,1.3-11,2.1-16.7,3.1c2.2,2,4.5,4.1,6.8,6.3c-0.2,0.3-0.3,0.5-0.5,0.8c-3,0-6,0.3-9-0.1
		c-4.5-0.6-9-1.5-13.4-2.6c-1.2-0.3-1.7,0.2-2.1,0.9c-2.7,5.1-5.4,10.1-8.1,15.2c-4.7,9.1-9.4,18.2-14.2,27.2
		C51.4,394.7,48.2,398,48,397.9z M102.9,318c8.1-2.8,15-6.9,21.6-11.4c18.5-12.5,36.8-25.4,55.3-38c15.4-10.4,29.5-22.3,42.7-35.3
		c6.9-6.8,13.5-13.9,18.3-22.4c1.4-2.5,2.2-5.3,3.1-8c0.4-1.1,0.1-2-1.1-2.6c-5.3-3-10.6-5.7-16.6-7c-9.1-2-18.1-2-27.2-0.3
		c-14.3,2.6-27.5,8.3-40,15.6c-26.5,15.5-48.8,35.8-68,59.6c-6.7,8.3-12.8,17-17.1,26.8c-0.6,1.3-1.1,2.6-1.6,4
		c-2.9-1.4-5.6-2.7-8.3-3.9c-1.4,8,5.6,26.6,11.5,30.7c0.5,1.2,8.9,6.6,9.1,6.2c6.7,5.1,28.3,1.6,34-5.4
		C113.6,323.6,108.4,320.9,102.9,318z"/>
	<path class="st0" d="M48,397.9c0.5-5,0.9-9.9,1.4-14.9c0.3-2.9,0.8-5.7,0.8-8.6s1.2-5.3,2.5-7.7c3.6-6.6,7.3-13.2,10.7-20
		c2-4,1.8-4.1-1.8-6.5c-6-4-9.5-9.8-11.7-16.5c-0.1-0.2-0.1-0.5-0.2-0.9c4.1,1.2,8,2.3,12.3,3.5c-7.3-15.5-10.2-31.1-6-47.7
		c3.3,1.8,6.6,3.6,9.9,5.4c1.9-2.5,3.8-4.9,5.6-7.3c14.6-18.9,30.2-36.8,48.3-52.5c19.8-17.1,42.1-29.8,67.6-36.2
		c13.2-3.3,26.5-4.2,39.9-1.3c8.8,1.9,16.9,5.5,24.2,11c1.1,0.8,1.4,1.6,1.3,2.9c-0.3,4.2-1.9,8-3.9,11.7
		c-4.6,8.6-10.6,16.2-17.2,23.3c-27.4,29.7-58.4,55.1-92.6,76.6c-3.7,2.3-7.7,4.2-11.7,6.3c3.8,2.1,7.4,4.1,11.6,6.4
		c-2.1,2.2-3.9,4.3-6,6.1c-6.9,5.8-15.1,9-23.8,11c-5.4,1.3-11,2.1-16.7,3.1c2.2,2,4.5,4.1,6.8,6.3c-0.2,0.3-0.3,0.5-0.5,0.8
		c-3,0-6,0.3-9-0.1c-4.5-0.6-9-1.5-13.4-2.6c-1.2-0.3-1.7,0.2-2.1,0.9c-2.7,5.1-5.4,10.1-8.1,15.2c-4.7,9.1-9.4,18.2-14.2,27.2
		C51.4,394.7,48.2,398,48,397.9z"/>
</g>
</svg>
